<mxfile host="app.diagrams.net" modified="2024-01-14T19:06:51.350Z" agent="Mozilla/5.0 (Windows NT 10.0; Win64; x64) AppleWebKit/537.36 (KHTML, like Gecko) Chrome/120.0.0.0 Safari/537.36" etag="iU6j7S3stYXVUm18xtDR" version="22.1.18" type="device">
  <diagram name="Page-1" id="1BgrSYEws_HeSDnuWzjW">
    <mxGraphModel dx="1772" dy="956" grid="1" gridSize="10" guides="1" tooltips="1" connect="1" arrows="1" fold="1" page="1" pageScale="1" pageWidth="827" pageHeight="1169" math="0" shadow="0">
      <root>
        <mxCell id="0" />
        <mxCell id="1" parent="0" />
        <mxCell id="MLGw7HJGHM3zIPw2lY0B-3" value="" style="shape=umlLifeline;perimeter=lifelinePerimeter;whiteSpace=wrap;html=1;container=1;dropTarget=0;collapsible=0;recursiveResize=0;outlineConnect=0;portConstraint=eastwest;newEdgeStyle={&quot;curved&quot;:0,&quot;rounded&quot;:0};participant=umlActor;" vertex="1" parent="1">
          <mxGeometry x="310" y="150" width="20" height="970" as="geometry" />
        </mxCell>
        <mxCell id="MLGw7HJGHM3zIPw2lY0B-4" value="Discord" style="shape=umlLifeline;perimeter=lifelinePerimeter;whiteSpace=wrap;html=1;container=1;dropTarget=0;collapsible=0;recursiveResize=0;outlineConnect=0;portConstraint=eastwest;newEdgeStyle={&quot;curved&quot;:0,&quot;rounded&quot;:0};" vertex="1" parent="1">
          <mxGeometry x="430" y="150" width="100" height="970" as="geometry" />
        </mxCell>
        <mxCell id="MLGw7HJGHM3zIPw2lY0B-147" value="" style="endArrow=open;endFill=1;endSize=12;html=1;rounded=0;" edge="1" parent="MLGw7HJGHM3zIPw2lY0B-4">
          <mxGeometry width="160" relative="1" as="geometry">
            <mxPoint x="-109.32" y="891" as="sourcePoint" />
            <mxPoint x="50" y="891" as="targetPoint" />
          </mxGeometry>
        </mxCell>
        <mxCell id="MLGw7HJGHM3zIPw2lY0B-148" value="" style="html=1;points=[[0,0,0,0,5],[0,1,0,0,-5],[1,0,0,0,5],[1,1,0,0,-5]];perimeter=orthogonalPerimeter;outlineConnect=0;targetShapes=umlLifeline;portConstraint=eastwest;newEdgeStyle={&quot;curved&quot;:0,&quot;rounded&quot;:0};fillColor=#0D0D0D;" vertex="1" parent="MLGw7HJGHM3zIPw2lY0B-4">
          <mxGeometry x="45.00000000000001" y="890" width="10" height="35" as="geometry" />
        </mxCell>
        <mxCell id="MLGw7HJGHM3zIPw2lY0B-149" value="" style="html=1;verticalAlign=bottom;endArrow=open;dashed=1;endSize=8;curved=0;rounded=0;" edge="1" parent="MLGw7HJGHM3zIPw2lY0B-4">
          <mxGeometry relative="1" as="geometry">
            <mxPoint x="50" y="925" as="sourcePoint" />
            <mxPoint x="-109.99647058823535" y="925.4100000000001" as="targetPoint" />
          </mxGeometry>
        </mxCell>
        <mxCell id="MLGw7HJGHM3zIPw2lY0B-5" value="Chat Service" style="shape=umlLifeline;perimeter=lifelinePerimeter;whiteSpace=wrap;html=1;container=1;dropTarget=0;collapsible=0;recursiveResize=0;outlineConnect=0;portConstraint=eastwest;newEdgeStyle={&quot;curved&quot;:0,&quot;rounded&quot;:0};" vertex="1" parent="1">
          <mxGeometry x="630" y="150" width="100" height="970" as="geometry" />
        </mxCell>
        <mxCell id="MLGw7HJGHM3zIPw2lY0B-37" value="" style="endArrow=open;endFill=1;endSize=12;html=1;rounded=0;" edge="1" parent="MLGw7HJGHM3zIPw2lY0B-5" target="MLGw7HJGHM3zIPw2lY0B-5">
          <mxGeometry width="160" relative="1" as="geometry">
            <mxPoint x="-145" y="386" as="sourcePoint" />
            <mxPoint x="10" y="386" as="targetPoint" />
          </mxGeometry>
        </mxCell>
        <mxCell id="MLGw7HJGHM3zIPw2lY0B-38" value="Join Chat" style="text;html=1;align=center;verticalAlign=middle;resizable=0;points=[];autosize=1;strokeColor=none;fillColor=none;" vertex="1" parent="MLGw7HJGHM3zIPw2lY0B-5">
          <mxGeometry x="-127" y="356" width="70" height="30" as="geometry" />
        </mxCell>
        <mxCell id="MLGw7HJGHM3zIPw2lY0B-39" value="" style="html=1;points=[[0,0,0,0,5],[0,1,0,0,-5],[1,0,0,0,5],[1,1,0,0,-5]];perimeter=orthogonalPerimeter;outlineConnect=0;targetShapes=umlLifeline;portConstraint=eastwest;newEdgeStyle={&quot;curved&quot;:0,&quot;rounded&quot;:0};fillColor=#0D0D0D;" vertex="1" parent="MLGw7HJGHM3zIPw2lY0B-5">
          <mxGeometry x="45" y="385" width="10" height="35" as="geometry" />
        </mxCell>
        <mxCell id="MLGw7HJGHM3zIPw2lY0B-6" value="Server Manager" style="shape=umlLifeline;perimeter=lifelinePerimeter;whiteSpace=wrap;html=1;container=1;dropTarget=0;collapsible=0;recursiveResize=0;outlineConnect=0;portConstraint=eastwest;newEdgeStyle={&quot;curved&quot;:0,&quot;rounded&quot;:0};" vertex="1" parent="1">
          <mxGeometry x="827" y="150" width="100" height="970" as="geometry" />
        </mxCell>
        <mxCell id="MLGw7HJGHM3zIPw2lY0B-119" value="" style="html=1;points=[[0,0,0,0,5],[0,1,0,0,-5],[1,0,0,0,5],[1,1,0,0,-5]];perimeter=orthogonalPerimeter;outlineConnect=0;targetShapes=umlLifeline;portConstraint=eastwest;newEdgeStyle={&quot;curved&quot;:0,&quot;rounded&quot;:0};fillColor=#0D0D0D;" vertex="1" parent="MLGw7HJGHM3zIPw2lY0B-6">
          <mxGeometry x="45" y="660" width="10" height="60" as="geometry" />
        </mxCell>
        <mxCell id="MLGw7HJGHM3zIPw2lY0B-47" value="" style="html=1;points=[[0,0,0,0,5],[0,1,0,0,-5],[1,0,0,0,5],[1,1,0,0,-5]];perimeter=orthogonalPerimeter;outlineConnect=0;targetShapes=umlLifeline;portConstraint=eastwest;newEdgeStyle={&quot;curved&quot;:0,&quot;rounded&quot;:0};fillColor=#0A0A0A;" vertex="1" parent="MLGw7HJGHM3zIPw2lY0B-6">
          <mxGeometry x="45" y="500" width="10" height="60" as="geometry" />
        </mxCell>
        <mxCell id="MLGw7HJGHM3zIPw2lY0B-54" value="" style="html=1;points=[[0,0,0,0,5],[0,1,0,0,-5],[1,0,0,0,5],[1,1,0,0,-5]];perimeter=orthogonalPerimeter;outlineConnect=0;targetShapes=umlLifeline;portConstraint=eastwest;newEdgeStyle={&quot;curved&quot;:0,&quot;rounded&quot;:0};fillColor=#FFFFFF;" vertex="1" parent="MLGw7HJGHM3zIPw2lY0B-6">
          <mxGeometry x="45" y="509" width="10" height="41" as="geometry" />
        </mxCell>
        <mxCell id="MLGw7HJGHM3zIPw2lY0B-118" value="" style="html=1;points=[[0,0,0,0,5],[0,1,0,0,-5],[1,0,0,0,5],[1,1,0,0,-5]];perimeter=orthogonalPerimeter;outlineConnect=0;targetShapes=umlLifeline;portConstraint=eastwest;newEdgeStyle={&quot;curved&quot;:0,&quot;rounded&quot;:0};fillColor=#FFFFFF;" vertex="1" parent="MLGw7HJGHM3zIPw2lY0B-6">
          <mxGeometry x="45" y="670" width="10" height="41" as="geometry" />
        </mxCell>
        <mxCell id="MLGw7HJGHM3zIPw2lY0B-145" value="" style="html=1;points=[[0,0,0,0,5],[0,1,0,0,-5],[1,0,0,0,5],[1,1,0,0,-5]];perimeter=orthogonalPerimeter;outlineConnect=0;targetShapes=umlLifeline;portConstraint=eastwest;newEdgeStyle={&quot;curved&quot;:0,&quot;rounded&quot;:0};fillColor=#0D0D0D;" vertex="1" parent="MLGw7HJGHM3zIPw2lY0B-6">
          <mxGeometry x="45" y="796" width="10" height="60" as="geometry" />
        </mxCell>
        <mxCell id="MLGw7HJGHM3zIPw2lY0B-146" value="" style="html=1;points=[[0,0,0,0,5],[0,1,0,0,-5],[1,0,0,0,5],[1,1,0,0,-5]];perimeter=orthogonalPerimeter;outlineConnect=0;targetShapes=umlLifeline;portConstraint=eastwest;newEdgeStyle={&quot;curved&quot;:0,&quot;rounded&quot;:0};fillColor=#FFFFFF;" vertex="1" parent="MLGw7HJGHM3zIPw2lY0B-6">
          <mxGeometry x="45" y="806" width="10" height="41" as="geometry" />
        </mxCell>
        <mxCell id="MLGw7HJGHM3zIPw2lY0B-7" value="User" style="shape=umlLifeline;perimeter=lifelinePerimeter;whiteSpace=wrap;html=1;container=1;dropTarget=0;collapsible=0;recursiveResize=0;outlineConnect=0;portConstraint=eastwest;newEdgeStyle={&quot;curved&quot;:0,&quot;rounded&quot;:0};participant=umlActor;" vertex="1" parent="1">
          <mxGeometry x="1090" y="150" width="20" height="970" as="geometry" />
        </mxCell>
        <mxCell id="MLGw7HJGHM3zIPw2lY0B-19" value="" style="html=1;points=[[0,0,0,0,5],[0,1,0,0,-5],[1,0,0,0,5],[1,1,0,0,-5]];perimeter=orthogonalPerimeter;outlineConnect=0;targetShapes=umlLifeline;portConstraint=eastwest;newEdgeStyle={&quot;curved&quot;:0,&quot;rounded&quot;:0};fillColor=#0D0D0D;" vertex="1" parent="MLGw7HJGHM3zIPw2lY0B-7">
          <mxGeometry x="5" y="130" width="10" height="50" as="geometry" />
        </mxCell>
        <mxCell id="MLGw7HJGHM3zIPw2lY0B-32" value="" style="html=1;points=[[0,0,0,0,5],[0,1,0,0,-5],[1,0,0,0,5],[1,1,0,0,-5]];perimeter=orthogonalPerimeter;outlineConnect=0;targetShapes=umlLifeline;portConstraint=eastwest;newEdgeStyle={&quot;curved&quot;:0,&quot;rounded&quot;:0};fillColor=#0D0D0D;" vertex="1" parent="MLGw7HJGHM3zIPw2lY0B-7">
          <mxGeometry x="5" y="241" width="10" height="50" as="geometry" />
        </mxCell>
        <mxCell id="MLGw7HJGHM3zIPw2lY0B-50" value="" style="html=1;points=[[0,0,0,0,5],[0,1,0,0,-5],[1,0,0,0,5],[1,1,0,0,-5]];perimeter=orthogonalPerimeter;outlineConnect=0;targetShapes=umlLifeline;portConstraint=eastwest;newEdgeStyle={&quot;curved&quot;:0,&quot;rounded&quot;:0};fillColor=#0D0D0D;" vertex="1" parent="MLGw7HJGHM3zIPw2lY0B-7">
          <mxGeometry x="5" y="511" width="10" height="35" as="geometry" />
        </mxCell>
        <mxCell id="MLGw7HJGHM3zIPw2lY0B-124" value="" style="html=1;points=[[0,0,0,0,5],[0,1,0,0,-5],[1,0,0,0,5],[1,1,0,0,-5]];perimeter=orthogonalPerimeter;outlineConnect=0;targetShapes=umlLifeline;portConstraint=eastwest;newEdgeStyle={&quot;curved&quot;:0,&quot;rounded&quot;:0};fillColor=#0D0D0D;" vertex="1" parent="MLGw7HJGHM3zIPw2lY0B-7">
          <mxGeometry x="5" y="672" width="10" height="35" as="geometry" />
        </mxCell>
        <mxCell id="MLGw7HJGHM3zIPw2lY0B-8" value="" style="shape=datastore;whiteSpace=wrap;html=1;fontSize=14;" vertex="1" parent="1">
          <mxGeometry x="1069.5" y="140" width="61" height="58" as="geometry" />
        </mxCell>
        <mxCell id="MLGw7HJGHM3zIPw2lY0B-9" value="DataBase" style="text;html=1;align=center;verticalAlign=middle;resizable=0;points=[];autosize=1;strokeColor=none;fillColor=none;" vertex="1" parent="1">
          <mxGeometry x="1060" y="110" width="80" height="30" as="geometry" />
        </mxCell>
        <mxCell id="MLGw7HJGHM3zIPw2lY0B-10" value="" style="endArrow=open;endFill=1;endSize=12;html=1;rounded=0;" edge="1" parent="1" source="MLGw7HJGHM3zIPw2lY0B-12">
          <mxGeometry width="160" relative="1" as="geometry">
            <mxPoint x="320" y="240" as="sourcePoint" />
            <mxPoint x="480" y="240" as="targetPoint" />
          </mxGeometry>
        </mxCell>
        <mxCell id="MLGw7HJGHM3zIPw2lY0B-11" value="Open Discord&amp;nbsp;" style="text;html=1;align=center;verticalAlign=middle;resizable=0;points=[];autosize=1;strokeColor=none;fillColor=none;" vertex="1" parent="1">
          <mxGeometry x="320" y="210" width="100" height="30" as="geometry" />
        </mxCell>
        <mxCell id="MLGw7HJGHM3zIPw2lY0B-13" value="" style="endArrow=open;endFill=1;endSize=12;html=1;rounded=0;" edge="1" parent="1" target="MLGw7HJGHM3zIPw2lY0B-12">
          <mxGeometry width="160" relative="1" as="geometry">
            <mxPoint x="320" y="240" as="sourcePoint" />
            <mxPoint x="480" y="240" as="targetPoint" />
          </mxGeometry>
        </mxCell>
        <mxCell id="MLGw7HJGHM3zIPw2lY0B-12" value="" style="html=1;points=[[0,0,0,0,5],[0,1,0,0,-5],[1,0,0,0,5],[1,1,0,0,-5]];perimeter=orthogonalPerimeter;outlineConnect=0;targetShapes=umlLifeline;portConstraint=eastwest;newEdgeStyle={&quot;curved&quot;:0,&quot;rounded&quot;:0};" vertex="1" parent="1">
          <mxGeometry x="475" y="230" width="10" height="780" as="geometry" />
        </mxCell>
        <mxCell id="MLGw7HJGHM3zIPw2lY0B-14" value="Login/ Register" style="text;html=1;align=center;verticalAlign=middle;resizable=0;points=[];autosize=1;strokeColor=none;fillColor=none;" vertex="1" parent="1">
          <mxGeometry x="320" y="250" width="100" height="30" as="geometry" />
        </mxCell>
        <mxCell id="MLGw7HJGHM3zIPw2lY0B-15" value="" style="endArrow=block;endFill=1;endSize=12;html=1;rounded=0;" edge="1" parent="1">
          <mxGeometry width="160" relative="1" as="geometry">
            <mxPoint x="320" y="280" as="sourcePoint" />
            <mxPoint x="475" y="280" as="targetPoint" />
          </mxGeometry>
        </mxCell>
        <mxCell id="MLGw7HJGHM3zIPw2lY0B-16" value="" style="html=1;points=[[0,0,0,0,5],[0,1,0,0,-5],[1,0,0,0,5],[1,1,0,0,-5]];perimeter=orthogonalPerimeter;outlineConnect=0;targetShapes=umlLifeline;portConstraint=eastwest;newEdgeStyle={&quot;curved&quot;:0,&quot;rounded&quot;:0};fillColor=#0D0D0D;" vertex="1" parent="1">
          <mxGeometry x="475" y="280" width="10" height="50" as="geometry" />
        </mxCell>
        <mxCell id="MLGw7HJGHM3zIPw2lY0B-17" value="" style="endArrow=open;endFill=1;endSize=12;html=1;rounded=0;" edge="1" parent="1">
          <mxGeometry width="160" relative="1" as="geometry">
            <mxPoint x="485" y="282" as="sourcePoint" />
            <mxPoint x="1099.5" y="281.9999999999999" as="targetPoint" />
          </mxGeometry>
        </mxCell>
        <mxCell id="MLGw7HJGHM3zIPw2lY0B-21" value="" style="html=1;verticalAlign=bottom;endArrow=open;dashed=1;endSize=8;curved=0;rounded=0;" edge="1" parent="1" source="MLGw7HJGHM3zIPw2lY0B-7">
          <mxGeometry relative="1" as="geometry">
            <mxPoint x="565" y="330" as="sourcePoint" />
            <mxPoint x="485" y="330" as="targetPoint" />
          </mxGeometry>
        </mxCell>
        <mxCell id="MLGw7HJGHM3zIPw2lY0B-22" value="Request Login Page" style="text;html=1;align=center;verticalAlign=middle;resizable=0;points=[];autosize=1;strokeColor=none;fillColor=none;" vertex="1" parent="1">
          <mxGeometry x="483" y="258" width="130" height="30" as="geometry" />
        </mxCell>
        <mxCell id="MLGw7HJGHM3zIPw2lY0B-23" value="Return Login Page" style="text;html=1;align=center;verticalAlign=middle;resizable=0;points=[];autosize=1;strokeColor=none;fillColor=none;" vertex="1" parent="1">
          <mxGeometry x="490" y="306" width="120" height="30" as="geometry" />
        </mxCell>
        <mxCell id="MLGw7HJGHM3zIPw2lY0B-24" value="Enter Credentials" style="text;html=1;align=center;verticalAlign=middle;resizable=0;points=[];autosize=1;strokeColor=none;fillColor=none;" vertex="1" parent="1">
          <mxGeometry x="317" y="364" width="120" height="30" as="geometry" />
        </mxCell>
        <mxCell id="MLGw7HJGHM3zIPw2lY0B-25" value="" style="endArrow=block;endFill=1;endSize=12;html=1;rounded=0;" edge="1" parent="1">
          <mxGeometry width="160" relative="1" as="geometry">
            <mxPoint x="320" y="392" as="sourcePoint" />
            <mxPoint x="475" y="392" as="targetPoint" />
          </mxGeometry>
        </mxCell>
        <mxCell id="MLGw7HJGHM3zIPw2lY0B-26" value="" style="html=1;points=[[0,0,0,0,5],[0,1,0,0,-5],[1,0,0,0,5],[1,1,0,0,-5]];perimeter=orthogonalPerimeter;outlineConnect=0;targetShapes=umlLifeline;portConstraint=eastwest;newEdgeStyle={&quot;curved&quot;:0,&quot;rounded&quot;:0};fillColor=#0D0D0D;" vertex="1" parent="1">
          <mxGeometry x="475" y="391" width="10" height="50" as="geometry" />
        </mxCell>
        <mxCell id="MLGw7HJGHM3zIPw2lY0B-27" value="" style="endArrow=open;endFill=1;endSize=12;html=1;rounded=0;" edge="1" parent="1">
          <mxGeometry width="160" relative="1" as="geometry">
            <mxPoint x="485" y="393" as="sourcePoint" />
            <mxPoint x="1100" y="393" as="targetPoint" />
          </mxGeometry>
        </mxCell>
        <mxCell id="MLGw7HJGHM3zIPw2lY0B-28" value="" style="html=1;verticalAlign=bottom;endArrow=open;dashed=1;endSize=8;curved=0;rounded=0;" edge="1" parent="1">
          <mxGeometry relative="1" as="geometry">
            <mxPoint x="1100" y="440" as="sourcePoint" />
            <mxPoint x="485" y="440" as="targetPoint" />
          </mxGeometry>
        </mxCell>
        <mxCell id="MLGw7HJGHM3zIPw2lY0B-29" value="Verify Credentials" style="text;html=1;align=center;verticalAlign=middle;resizable=0;points=[];autosize=1;strokeColor=none;fillColor=none;" vertex="1" parent="1">
          <mxGeometry x="488" y="369" width="120" height="30" as="geometry" />
        </mxCell>
        <mxCell id="MLGw7HJGHM3zIPw2lY0B-30" value="Credentials Valid&amp;nbsp;" style="text;html=1;align=center;verticalAlign=middle;resizable=0;points=[];autosize=1;strokeColor=none;fillColor=none;" vertex="1" parent="1">
          <mxGeometry x="490" y="416" width="120" height="30" as="geometry" />
        </mxCell>
        <mxCell id="MLGw7HJGHM3zIPw2lY0B-33" value="Redirect to Home" style="html=1;verticalAlign=bottom;endArrow=open;dashed=1;endSize=8;curved=0;rounded=0;" edge="1" parent="1" target="MLGw7HJGHM3zIPw2lY0B-3">
          <mxGeometry relative="1" as="geometry">
            <mxPoint x="475" y="469.41" as="sourcePoint" />
            <mxPoint x="395" y="469.41" as="targetPoint" />
          </mxGeometry>
        </mxCell>
        <mxCell id="MLGw7HJGHM3zIPw2lY0B-34" value="" style="endArrow=open;endFill=1;endSize=12;html=1;rounded=0;" edge="1" parent="1">
          <mxGeometry width="160" relative="1" as="geometry">
            <mxPoint x="319" y="536" as="sourcePoint" />
            <mxPoint x="474" y="536" as="targetPoint" />
          </mxGeometry>
        </mxCell>
        <mxCell id="MLGw7HJGHM3zIPw2lY0B-35" value="Select Chat Type &lt;br&gt;(Voice.Text)" style="text;html=1;align=center;verticalAlign=middle;resizable=0;points=[];autosize=1;strokeColor=none;fillColor=none;" vertex="1" parent="1">
          <mxGeometry x="317" y="501" width="110" height="40" as="geometry" />
        </mxCell>
        <mxCell id="MLGw7HJGHM3zIPw2lY0B-36" value="" style="html=1;points=[[0,0,0,0,5],[0,1,0,0,-5],[1,0,0,0,5],[1,1,0,0,-5]];perimeter=orthogonalPerimeter;outlineConnect=0;targetShapes=umlLifeline;portConstraint=eastwest;newEdgeStyle={&quot;curved&quot;:0,&quot;rounded&quot;:0};fillColor=#0D0D0D;" vertex="1" parent="1">
          <mxGeometry x="474" y="535" width="10" height="50" as="geometry" />
        </mxCell>
        <mxCell id="MLGw7HJGHM3zIPw2lY0B-41" value="" style="html=1;verticalAlign=bottom;endArrow=open;dashed=1;endSize=8;curved=0;rounded=0;" edge="1" parent="1">
          <mxGeometry relative="1" as="geometry">
            <mxPoint x="681" y="570.4100000000001" as="sourcePoint" />
            <mxPoint x="484.32352941176464" y="570.4100000000001" as="targetPoint" />
          </mxGeometry>
        </mxCell>
        <mxCell id="MLGw7HJGHM3zIPw2lY0B-42" value="Chat Joined" style="text;html=1;align=center;verticalAlign=middle;resizable=0;points=[];autosize=1;strokeColor=none;fillColor=none;" vertex="1" parent="1">
          <mxGeometry x="503" y="546" width="90" height="30" as="geometry" />
        </mxCell>
        <mxCell id="MLGw7HJGHM3zIPw2lY0B-43" value="" style="endArrow=open;endFill=1;endSize=12;html=1;rounded=0;" edge="1" parent="1">
          <mxGeometry width="160" relative="1" as="geometry">
            <mxPoint x="322" y="620" as="sourcePoint" />
            <mxPoint x="477" y="620" as="targetPoint" />
          </mxGeometry>
        </mxCell>
        <mxCell id="MLGw7HJGHM3zIPw2lY0B-44" value="Create Server" style="text;html=1;align=center;verticalAlign=middle;resizable=0;points=[];autosize=1;strokeColor=none;fillColor=none;" vertex="1" parent="1">
          <mxGeometry x="325" y="590" width="100" height="30" as="geometry" />
        </mxCell>
        <mxCell id="MLGw7HJGHM3zIPw2lY0B-45" value="" style="endArrow=open;endFill=1;endSize=12;html=1;rounded=0;" edge="1" parent="1" target="MLGw7HJGHM3zIPw2lY0B-6">
          <mxGeometry width="160" relative="1" as="geometry">
            <mxPoint x="483" y="650" as="sourcePoint" />
            <mxPoint x="638" y="650" as="targetPoint" />
          </mxGeometry>
        </mxCell>
        <mxCell id="MLGw7HJGHM3zIPw2lY0B-46" value="Request Server Creation" style="text;html=1;align=center;verticalAlign=middle;resizable=0;points=[];autosize=1;strokeColor=none;fillColor=none;" vertex="1" parent="1">
          <mxGeometry x="483" y="620" width="160" height="30" as="geometry" />
        </mxCell>
        <mxCell id="MLGw7HJGHM3zIPw2lY0B-48" value="" style="endArrow=open;endFill=1;endSize=12;html=1;rounded=0;" edge="1" parent="1" target="MLGw7HJGHM3zIPw2lY0B-7">
          <mxGeometry width="160" relative="1" as="geometry">
            <mxPoint x="880.6800000000001" y="660" as="sourcePoint" />
            <mxPoint x="1075.68" y="660" as="targetPoint" />
          </mxGeometry>
        </mxCell>
        <mxCell id="MLGw7HJGHM3zIPw2lY0B-49" value="Save Server Configuration" style="text;html=1;align=center;verticalAlign=middle;resizable=0;points=[];autosize=1;strokeColor=none;fillColor=none;" vertex="1" parent="1">
          <mxGeometry x="880.0000000000001" y="630" width="160" height="30" as="geometry" />
        </mxCell>
        <mxCell id="MLGw7HJGHM3zIPw2lY0B-51" value="" style="html=1;verticalAlign=bottom;endArrow=open;dashed=1;endSize=8;curved=0;rounded=0;" edge="1" parent="1">
          <mxGeometry relative="1" as="geometry">
            <mxPoint x="1099.5" y="698.4100000000001" as="sourcePoint" />
            <mxPoint x="880.0035294117647" y="698.4100000000001" as="targetPoint" />
          </mxGeometry>
        </mxCell>
        <mxCell id="MLGw7HJGHM3zIPw2lY0B-52" value="Server Configuration Saved" style="text;html=1;align=center;verticalAlign=middle;resizable=0;points=[];autosize=1;strokeColor=none;fillColor=none;" vertex="1" parent="1">
          <mxGeometry x="879.0000000000001" y="674" width="170" height="30" as="geometry" />
        </mxCell>
        <mxCell id="MLGw7HJGHM3zIPw2lY0B-53" value="" style="html=1;verticalAlign=bottom;endArrow=open;dashed=1;endSize=8;curved=0;rounded=0;" edge="1" parent="1" source="MLGw7HJGHM3zIPw2lY0B-6">
          <mxGeometry relative="1" as="geometry">
            <mxPoint x="640" y="710.4100000000001" as="sourcePoint" />
            <mxPoint x="484" y="710" as="targetPoint" />
          </mxGeometry>
        </mxCell>
        <mxCell id="MLGw7HJGHM3zIPw2lY0B-55" value="Server Created" style="text;html=1;align=center;verticalAlign=middle;resizable=0;points=[];autosize=1;strokeColor=none;fillColor=none;" vertex="1" parent="1">
          <mxGeometry x="493" y="685" width="100" height="30" as="geometry" />
        </mxCell>
        <mxCell id="MLGw7HJGHM3zIPw2lY0B-112" value="" style="endArrow=open;endFill=1;endSize=12;html=1;rounded=0;" edge="1" parent="1">
          <mxGeometry width="160" relative="1" as="geometry">
            <mxPoint x="317" y="780" as="sourcePoint" />
            <mxPoint x="472" y="780" as="targetPoint" />
          </mxGeometry>
        </mxCell>
        <mxCell id="MLGw7HJGHM3zIPw2lY0B-113" value="Update Server" style="text;html=1;align=center;verticalAlign=middle;resizable=0;points=[];autosize=1;strokeColor=none;fillColor=none;" vertex="1" parent="1">
          <mxGeometry x="320" y="750" width="100" height="30" as="geometry" />
        </mxCell>
        <mxCell id="MLGw7HJGHM3zIPw2lY0B-114" value="" style="endArrow=open;endFill=1;endSize=12;html=1;rounded=0;" edge="1" parent="1">
          <mxGeometry width="160" relative="1" as="geometry">
            <mxPoint x="484" y="810" as="sourcePoint" />
            <mxPoint x="878" y="810" as="targetPoint" />
          </mxGeometry>
        </mxCell>
        <mxCell id="MLGw7HJGHM3zIPw2lY0B-115" value="Request Server Update" style="text;html=1;align=center;verticalAlign=middle;resizable=0;points=[];autosize=1;strokeColor=none;fillColor=none;" vertex="1" parent="1">
          <mxGeometry x="489" y="780" width="150" height="30" as="geometry" />
        </mxCell>
        <mxCell id="MLGw7HJGHM3zIPw2lY0B-116" value="" style="html=1;verticalAlign=bottom;endArrow=open;dashed=1;endSize=8;curved=0;rounded=0;" edge="1" parent="1">
          <mxGeometry relative="1" as="geometry">
            <mxPoint x="878" y="870" as="sourcePoint" />
            <mxPoint x="485" y="870" as="targetPoint" />
          </mxGeometry>
        </mxCell>
        <mxCell id="MLGw7HJGHM3zIPw2lY0B-117" value="Server Updated" style="text;html=1;align=center;verticalAlign=middle;resizable=0;points=[];autosize=1;strokeColor=none;fillColor=none;" vertex="1" parent="1">
          <mxGeometry x="489" y="845" width="110" height="30" as="geometry" />
        </mxCell>
        <mxCell id="MLGw7HJGHM3zIPw2lY0B-120" value="" style="endArrow=open;endFill=1;endSize=12;html=1;rounded=0;" edge="1" parent="1">
          <mxGeometry width="160" relative="1" as="geometry">
            <mxPoint x="880.6800000000001" y="820" as="sourcePoint" />
            <mxPoint x="1099" y="820" as="targetPoint" />
          </mxGeometry>
        </mxCell>
        <mxCell id="MLGw7HJGHM3zIPw2lY0B-121" value="Update Server Configuration" style="text;html=1;align=center;verticalAlign=middle;resizable=0;points=[];autosize=1;strokeColor=none;fillColor=none;" vertex="1" parent="1">
          <mxGeometry x="870.0000000000001" y="790" width="180" height="30" as="geometry" />
        </mxCell>
        <mxCell id="MLGw7HJGHM3zIPw2lY0B-122" value="" style="html=1;verticalAlign=bottom;endArrow=open;dashed=1;endSize=8;curved=0;rounded=0;" edge="1" parent="1">
          <mxGeometry relative="1" as="geometry">
            <mxPoint x="1099.5" y="858.4100000000001" as="sourcePoint" />
            <mxPoint x="880.0035294117647" y="858.4100000000001" as="targetPoint" />
          </mxGeometry>
        </mxCell>
        <mxCell id="MLGw7HJGHM3zIPw2lY0B-123" value="Server Configuration Updated" style="text;html=1;align=center;verticalAlign=middle;resizable=0;points=[];autosize=1;strokeColor=none;fillColor=none;" vertex="1" parent="1">
          <mxGeometry x="874.0000000000001" y="834" width="180" height="30" as="geometry" />
        </mxCell>
        <mxCell id="MLGw7HJGHM3zIPw2lY0B-125" value="" style="endArrow=open;endFill=1;endSize=12;html=1;rounded=0;" edge="1" parent="1">
          <mxGeometry width="160" relative="1" as="geometry">
            <mxPoint x="320" y="915" as="sourcePoint" />
            <mxPoint x="475" y="915" as="targetPoint" />
          </mxGeometry>
        </mxCell>
        <mxCell id="MLGw7HJGHM3zIPw2lY0B-126" value="Delete Server" style="text;html=1;align=center;verticalAlign=middle;resizable=0;points=[];autosize=1;strokeColor=none;fillColor=none;" vertex="1" parent="1">
          <mxGeometry x="323" y="885" width="100" height="30" as="geometry" />
        </mxCell>
        <mxCell id="MLGw7HJGHM3zIPw2lY0B-127" value="" style="endArrow=open;endFill=1;endSize=12;html=1;rounded=0;" edge="1" parent="1">
          <mxGeometry width="160" relative="1" as="geometry">
            <mxPoint x="487" y="945" as="sourcePoint" />
            <mxPoint x="881" y="945" as="targetPoint" />
          </mxGeometry>
        </mxCell>
        <mxCell id="MLGw7HJGHM3zIPw2lY0B-128" value="Request Server Delete" style="text;html=1;align=center;verticalAlign=middle;resizable=0;points=[];autosize=1;strokeColor=none;fillColor=none;" vertex="1" parent="1">
          <mxGeometry x="497" y="915" width="140" height="30" as="geometry" />
        </mxCell>
        <mxCell id="MLGw7HJGHM3zIPw2lY0B-129" value="" style="html=1;verticalAlign=bottom;endArrow=open;dashed=1;endSize=8;curved=0;rounded=0;" edge="1" parent="1">
          <mxGeometry relative="1" as="geometry">
            <mxPoint x="881" y="1005" as="sourcePoint" />
            <mxPoint x="488" y="1005" as="targetPoint" />
          </mxGeometry>
        </mxCell>
        <mxCell id="MLGw7HJGHM3zIPw2lY0B-130" value="Server Deleted" style="text;html=1;align=center;verticalAlign=middle;resizable=0;points=[];autosize=1;strokeColor=none;fillColor=none;" vertex="1" parent="1">
          <mxGeometry x="497" y="980" width="100" height="30" as="geometry" />
        </mxCell>
        <mxCell id="MLGw7HJGHM3zIPw2lY0B-140" value="" style="html=1;points=[[0,0,0,0,5],[0,1,0,0,-5],[1,0,0,0,5],[1,1,0,0,-5]];perimeter=orthogonalPerimeter;outlineConnect=0;targetShapes=umlLifeline;portConstraint=eastwest;newEdgeStyle={&quot;curved&quot;:0,&quot;rounded&quot;:0};fillColor=#0D0D0D;" vertex="1" parent="1">
          <mxGeometry x="1095" y="962" width="10" height="35" as="geometry" />
        </mxCell>
        <mxCell id="MLGw7HJGHM3zIPw2lY0B-141" value="" style="endArrow=open;endFill=1;endSize=12;html=1;rounded=0;" edge="1" parent="1">
          <mxGeometry width="160" relative="1" as="geometry">
            <mxPoint x="880.6800000000001" y="960" as="sourcePoint" />
            <mxPoint x="1099" y="960" as="targetPoint" />
          </mxGeometry>
        </mxCell>
        <mxCell id="MLGw7HJGHM3zIPw2lY0B-142" value="Delete Server" style="text;html=1;align=center;verticalAlign=middle;resizable=0;points=[];autosize=1;strokeColor=none;fillColor=none;" vertex="1" parent="1">
          <mxGeometry x="910.0000000000001" y="930" width="100" height="30" as="geometry" />
        </mxCell>
        <mxCell id="MLGw7HJGHM3zIPw2lY0B-143" value="" style="html=1;verticalAlign=bottom;endArrow=open;dashed=1;endSize=8;curved=0;rounded=0;" edge="1" parent="1">
          <mxGeometry relative="1" as="geometry">
            <mxPoint x="1099.5" y="998.4100000000001" as="sourcePoint" />
            <mxPoint x="880.0035294117647" y="998.4100000000001" as="targetPoint" />
          </mxGeometry>
        </mxCell>
        <mxCell id="MLGw7HJGHM3zIPw2lY0B-144" value="Server Deleted" style="text;html=1;align=center;verticalAlign=middle;resizable=0;points=[];autosize=1;strokeColor=none;fillColor=none;" vertex="1" parent="1">
          <mxGeometry x="914.0000000000001" y="974" width="100" height="30" as="geometry" />
        </mxCell>
        <mxCell id="MLGw7HJGHM3zIPw2lY0B-150" value="Log-out" style="text;html=1;align=center;verticalAlign=middle;resizable=0;points=[];autosize=1;strokeColor=none;fillColor=none;" vertex="1" parent="1">
          <mxGeometry x="323" y="1018" width="60" height="30" as="geometry" />
        </mxCell>
        <mxCell id="MLGw7HJGHM3zIPw2lY0B-151" value="Redirect to login" style="text;html=1;align=center;verticalAlign=middle;resizable=0;points=[];autosize=1;strokeColor=none;fillColor=none;" vertex="1" parent="1">
          <mxGeometry x="320" y="1052" width="110" height="30" as="geometry" />
        </mxCell>
        <mxCell id="MLGw7HJGHM3zIPw2lY0B-152" value="" style="shape=datastore;whiteSpace=wrap;html=1;fontSize=14;" vertex="1" parent="1">
          <mxGeometry x="1069.5" y="1110" width="61" height="58" as="geometry" />
        </mxCell>
        <mxCell id="MLGw7HJGHM3zIPw2lY0B-153" value="DataBase" style="text;html=1;align=center;verticalAlign=middle;resizable=0;points=[];autosize=1;strokeColor=none;fillColor=none;" vertex="1" parent="1">
          <mxGeometry x="1060" y="1168" width="80" height="30" as="geometry" />
        </mxCell>
        <mxCell id="MLGw7HJGHM3zIPw2lY0B-157" value="User" style="shape=umlActor;verticalLabelPosition=bottom;verticalAlign=top;html=1;" vertex="1" parent="1">
          <mxGeometry x="309" y="1118" width="22" height="41" as="geometry" />
        </mxCell>
        <mxCell id="MLGw7HJGHM3zIPw2lY0B-162" value="Discord" style="html=1;whiteSpace=wrap;" vertex="1" parent="1">
          <mxGeometry x="431.5" y="1118" width="100" height="40" as="geometry" />
        </mxCell>
        <mxCell id="MLGw7HJGHM3zIPw2lY0B-163" value="Chat Service" style="html=1;whiteSpace=wrap;" vertex="1" parent="1">
          <mxGeometry x="631.5" y="1118" width="100" height="40" as="geometry" />
        </mxCell>
        <mxCell id="MLGw7HJGHM3zIPw2lY0B-164" value="Server Manage" style="html=1;whiteSpace=wrap;" vertex="1" parent="1">
          <mxGeometry x="828.5" y="1118" width="100" height="40" as="geometry" />
        </mxCell>
        <mxCell id="MLGw7HJGHM3zIPw2lY0B-165" value="sd Discord" style="shape=umlFrame;whiteSpace=wrap;html=1;pointerEvents=0;" vertex="1" parent="1">
          <mxGeometry x="254" y="50" width="944" height="1160" as="geometry" />
        </mxCell>
        <mxCell id="MLGw7HJGHM3zIPw2lY0B-166" value="User" style="text;html=1;align=center;verticalAlign=middle;resizable=0;points=[];autosize=1;strokeColor=none;fillColor=none;" vertex="1" parent="1">
          <mxGeometry x="294" y="127" width="50" height="30" as="geometry" />
        </mxCell>
      </root>
    </mxGraphModel>
  </diagram>
</mxfile>
